<svg viewBox="-113 -113 1250 1250"><path d="M0 232.732444A232.732444 232.732444 0 0 1 232.732444 0h558.535112A232.732444 232.732444 0 0 1 1024 232.732444v558.535112A232.732444 232.732444 0 0 1 791.267556 1024H232.732444A232.732444 232.732444 0 0 1 0 791.267556V232.732444z m232.732444-139.662222a139.662222 139.662222 0 0 0-139.662222 139.662222v558.535112a139.662222 139.662222 0 0 0 139.662222 139.662222h558.535112a139.662222 139.662222 0 0 0 139.662222-139.662222V232.732444a139.662222 139.662222 0 0 0-139.662222-139.662222H232.732444z"></path><path d="M549.575111 245.845333c0-25.799111 20.935111-46.734222 46.734222-46.734222h116.821334A140.202667 140.202667 0 0 1 853.333333 339.313778v116.821333a46.734222 46.734222 0 0 1-93.468444 0v-116.821333c0-25.827556-20.906667-46.734222-46.734222-46.734222h-116.821334a46.734222 46.734222 0 0 1-46.734222-46.734223zM245.845333 549.546667c25.799111 0 46.734222 20.935111 46.734223 46.734222v116.821333c0 25.827556 20.906667 46.734222 46.734222 46.734222h116.821333a46.734222 46.734222 0 0 1 0 93.468445h-116.821333A140.202667 140.202667 0 0 1 199.111111 713.130667v-116.821334c0-25.799111 20.935111-46.734222 46.734222-46.734222z"></path></svg>