<svg style="transform: scale(.8);" t="1662029141436" viewBox="0 0 1024 1024" version="1.1" xmlns="http://www.w3.org/2000/svg" p-id="2497"><path d="M677.944889 589.909333c25.713778-16.952889 41.301333-46.478222 41.301333-78.222222 0-31.772444-15.587556-61.297778-41.301333-78.222222L440.32 276.906667c-58.88-38.741333-135.566222 5.518222-135.566222 78.279111V668.16c0 72.789333 76.686222 116.992 135.566222 78.222222l237.596444-156.472889h0.028445z m-47.132445-78.222222l-237.624888 156.472889V355.128889l237.624888 156.501333v0.028445z" p-id="2498" fill="#ffffff"></path><path d="M486.968889 104.106667c-128-0.227556-248.974222 57.457778-328.078222 156.444444h54.072889c16.469333 0 31.658667 8.647111 39.879111 22.641778 8.248889 14.023111 8.248889 31.288889 0 45.283555-8.248889 14.023111-23.409778 22.641778-39.879111 22.641778H74.865778c-25.400889 0-46.023111-20.252444-46.023111-45.283555v-164.693334c0-25.031111 20.622222-45.283556 46.023111-45.283555 25.429333 0 46.051556 20.252444 46.051555 45.283555v24.746667C216.832 68.266667 348.984889 13.255111 486.968889 13.482667 767.658667 13.511111 995.555556 236.316444 995.555556 511.715556c0 275.342222-227.868444 498.147556-508.586667 498.147555-190.862222 0.199111-365.738667-104.675556-453.006222-271.644444a44.657778 44.657778 0 0 1 1.678222-45.767111 46.250667 46.250667 0 0 1 41.415111-20.906667 46.08 46.08 0 0 1 38.798222 25.315555c71.509333 136.760889 214.812444 222.634667 371.114667 222.435556 230.257778 0 416.512-182.698667 416.512-407.608889 0-224.881778-186.254222-407.580444-416.512-407.580444z" p-id="2499" fill="#ffffff"></path></svg>