<svg viewBox="0 0 1024 1024"><path d="m768,213.33333l-512,0a85.33333,85.33333 0 0 0 -85.33333,85.33334l0,426.66666a85.33333,85.33333 0 0 0 85.33333,85.33334l170.66667,0a42.66667,42.66667 0 1 1 0,85.33333l-170.66667,0a170.66667,170.66667 0 0 1 -170.66667,-170.66667l0,-426.66666a170.66667,170.66667 0 0 1 170.66667,-170.66667l512,0a170.66667,170.66667 0 0 1 170.66667,170.66667l0,128a42.66667,42.66667 0 1 1 -85.33334,0l0,-128a85.33333,85.33333 0 0 0 -85.33333,-85.33334zm-128,341.33334a128,128 0 0 0 -128,128l0,85.33333a128,128 0 0 0 128,128l170.66667,0a128,128 0 0 0 128,-128l0,-85.33333a128,128 0 0 0 -128,-128l-170.66667,0z"></path><g stroke="null"><g stroke="null" transform="matrix(0.6896517266997474,0,0,0.6896517266997474,-10241.200782450309,-10001.206060939305) "><rect stroke="null" x="15122.523407" y="14826.656681" width="582" height="402" fill="none"></rect></g><g stroke="null" transform="matrix(0.6896517266997474,0,0,0.6896517266997474,-10241.200782450309,-10001.206060939305) "><path stroke="null" d="m15503.523407,14924.856681l-161.8,0c-66.2,0 -120,53.8 -120,120l0,161.8c0,22.1 17.9,40 40,40s40,-17.9 40,-40l0,-144.4l169.8,169.8c7.8,7.8 18,11.7 28.3,11.7c10.2,0 20.5,-3.9 28.3,-11.7c15.6,-15.6 15.6,-40.9 0,-56.6l-170.7,-170.6l146.1,0c22.1,0 40,-17.9 40,-40s-17.9,-40 -40,-40z"></path></g></g></svg>