<svg viewBox="0 0 1024 1024"><path d="M779 897H245c-65.065 0-118-52.935-118-118V245c0-65.065 52.935-118 118-118h534c65.065 0 118 52.935 118 118v534c0 65.065-52.935 118-118 118zM245 187c-31.981 0-58 26.019-58 58v534c0 31.981 26.019 58 58 58h534c31.981 0 58-26.019 58-58V245c0-31.981-26.019-58-58-58H245z" p-id="3735"></path><path d="M485.8 646.347h-66.028V539.893h-70.071v106.454h-66.028V377.653h66.028v103.488h70.071V377.653H485.8zM712.184 404.064c-18.326-18.596-44.469-26.411-72.497-26.411H540.24v268.694h99.447c28.028 0 54.17-7.815 72.497-26.411 31.531-31.263 28.028-65.759 28.028-107.801 0-42.312 3.503-76.81-28.028-108.071z m-45.277 168.439c-5.93 8.894-15.092 15.092-31.533 15.092h-29.105V436.404h29.105c16.441 0 25.603 6.198 31.533 15.092 5.389 7.545 7.276 15.092 7.276 60.638s-1.887 52.822-7.276 60.369z"></path></svg>