<svg viewBox="0 0 1024 1024"><path d="M170.666667 213.333333v597.333334h682.666666V213.333333H170.666667zM128 128h768a42.666667 42.666667 0 0 1 42.666667 42.666667v682.666666a42.666667 42.666667 0 0 1-42.666667 42.666667H128a42.666667 42.666667 0 0 1-42.666667-42.666667V170.666667a42.666667 42.666667 0 0 1 42.666667-42.666667z m192 352h85.333333V384H469.333333v256H405.333333v-96h-85.333333V640H256V384h64v96z m298.666667-32v128H682.666667a21.333333 21.333333 0 0 0 21.333333-21.333333v-85.333334a21.333333 21.333333 0 0 0-21.333333-21.333333h-64zM554.666667 384h128a85.333333 85.333333 0 0 1 85.333333 85.333333v85.333334a85.333333 85.333333 0 0 1-85.333333 85.333333h-128V384z"></path></svg>