<svg viewBox="0 0 1024 1024"><path d="M412.245333 757.333333a42.666667 42.666667 0 0 1-56.490666-64l356.48-314.794666a42.666667 42.666667 0 0 1 56.746666 0.256l112.896 101.461333a42.666667 42.666667 0 1 1-57.088 63.488L740.266667 467.626667l-328.021334 289.706666zM810.666667 213.333333h-128a42.666667 42.666667 0 0 1 0-85.333333h170.666666a42.666667 42.666667 0 0 1 42.666667 42.666667v170.666666a42.666667 42.666667 0 0 1-85.333333 0V213.333333zM213.333333 213.333333v128a42.666667 42.666667 0 1 1-85.333333 0V170.666667a42.666667 42.666667 0 0 1 42.666667-42.666667h170.666666a42.666667 42.666667 0 1 1 0 85.333333H213.333333z m597.333334 597.333334v-128a42.666667 42.666667 0 0 1 85.333333 0v170.666666a42.666667 42.666667 0 0 1-42.666667 42.666667h-170.666666a42.666667 42.666667 0 0 1 0-85.333333h128zM213.333333 810.666667h128a42.666667 42.666667 0 0 1 0 85.333333H170.666667a42.666667 42.666667 0 0 1-42.666667-42.666667v-170.666666a42.666667 42.666667 0 0 1 85.333333 0v128z m170.666667-298.666667a128 128 0 1 1 0-256 128 128 0 0 1 0 256z m0-85.333333a42.666667 42.666667 0 1 0 0-85.333334 42.666667 42.666667 0 0 0 0 85.333334z"></path></svg>