<?xml version="1.0" standalone="no"?><!DOCTYPE svg PUBLIC "-//W3C//DTD SVG 1.1//EN" "http://www.w3.org/Graphics/SVG/1.1/DTD/svg11.dtd"><svg t="1660103758898" viewBox="0 0 1024 1024" version="1.1" xmlns="http://www.w3.org/2000/svg" p-id="1788" xmlns:xlink="http://www.w3.org/1999/xlink"><defs></defs><path d="M132.915 475.689l-44.523-88.556a60.539 60.539 0 0 1 1.904-57.958l49.87-84.93a62.607 62.607 0 0 1 50.073-30.577l100.25-6.349a83.6 83.6 0 0 0 63.938-36.331L410.132 88.8a62.771 62.771 0 0 1 52.04-27.361h99.717c20.89 0 40.387 10.26 51.979 27.361l55.705 82.187a83.6 83.6 0 0 0 63.96 36.31l100.249 6.35a62.607 62.607 0 0 1 50.073 30.596l49.87 84.952a60.56 60.56 0 0 1 1.904 57.958l-44.524 88.535a80.691 80.691 0 0 0 0 72.622l44.524 88.556c9.257 18.411 8.54 40.14-1.905 57.958l-49.869 84.93a62.607 62.607 0 0 1-50.073 30.577l-100.25 6.349a83.6 83.6 0 0 0-63.938 36.331L613.888 935.2a62.771 62.771 0 0 1-52.06 27.361H462.11a62.771 62.771 0 0 1-51.979-27.361l-55.705-82.187a83.6 83.6 0 0 0-63.96-36.31l-100.249-6.35a62.607 62.607 0 0 1-50.073-30.596l-49.87-84.952a60.539 60.539 0 0 1-1.904-57.958l44.524-88.535a80.691 80.691 0 0 0 0-72.622zM512 696.32a184.32 184.32 0 1 0 0-368.64 184.32 184.32 0 0 0 0 368.64z" p-id="1789"></path></svg>