<svg viewBox="0 0 1024 1024" style="transform: scale(1.1);"><path d="M0 0h1024v1024H0z" fill-opacity="0"></path><path d="M501.333333 127.573333a21.333333 21.333333 0 0 1 21.333334 0l316.928 182.954667a21.333333 21.333333 0 0 1 10.666666 18.474667v365.994666a21.333333 21.333333 0 0 1-10.666666 18.474667L522.666667 896.426667a21.333333 21.333333 0 0 1-21.333334 0l-316.928-182.954667a21.333333 21.333333 0 0 1-10.666666-18.474667V328.96a21.333333 21.333333 0 0 1 10.666666-18.474667zM512 219.946667L259.029333 365.952v292.053333L512 804.010667l252.928-146.005334V365.952L512 219.946667zM512 426.666667a85.333333 85.333333 0 1 1 0 170.666666 85.333333 85.333333 0 0 1 0-170.666666z"></path></svg>
