<svg viewBox="0 0 1024 1024"><path d="M154.88 154.88a42.496 42.496 0 0 0 0 60.16L311.04 371.2 298.666667 384H170.666667c-23.466667 0-42.666667 19.2-42.666667 42.666667v170.666666c0 23.466667 19.2 42.666667 42.666667 42.666667h128l140.373333 140.373333c26.88 26.88 72.96 7.68 72.96-30.293333v-177.92l178.346667 178.346667c-20.906667 15.786667-43.52 29.013333-68.266667 38.826666-15.36 6.4-24.746667 22.613333-24.746667 39.253334 0 30.72 31.146667 50.346667 59.306667 38.826666 34.133333-14.08 66.133333-32.853333 94.72-55.893333l57.173333 57.173333a42.496 42.496 0 1 0 60.16-60.16L215.466667 154.88c-16.64-16.64-43.52-16.64-60.586667 0zM810.666667 512c0 34.986667-6.4 68.693333-17.493334 99.84l65.28 65.28c23.893333-49.92 37.546667-105.813333 37.546667-165.12 0-163.413333-102.4-303.36-246.613333-358.4-25.173333-9.813333-52.053333 9.813333-52.053334 36.693333v8.106667c0 16.213333 10.666667 30.293333 26.026667 36.266667C733.013333 279.04 810.666667 386.56 810.666667 512z m-371.626667-268.373333l-7.253333 7.253333L512 331.093333V273.493333c0-37.973333-46.08-56.746667-72.96-29.866666zM704 512A192 192 0 0 0 597.333333 340.053333v76.373334l105.813334 105.813333c0.426667-3.413333 0.853333-6.826667 0.853333-10.24z"></path></svg>