<svg viewBox="0 0 1024 1024"><path d="M128 426.666667v170.666666c0 23.466667 19.2 42.666667 42.666667 42.666667h128l140.373333 140.373333c26.88 26.88 72.96 7.68 72.96-30.293333V273.493333c0-37.973333-46.08-57.173333-72.96-30.293333L298.666667 384H170.666667c-23.466667 0-42.666667 19.2-42.666667 42.666667z m576 85.333333A192 192 0 0 0 597.333333 340.053333v343.466667c63.146667-31.146667 106.666667-96 106.666667-171.52zM597.333333 189.866667v8.533333c0 16.213333 10.666667 30.293333 25.6 36.266667C733.013333 278.613333 810.666667 386.56 810.666667 512s-77.653333 233.386667-187.733334 277.333333c-15.36 5.973333-25.6 20.053333-25.6 36.266667v8.533333c0 26.88 26.88 45.653333 51.626667 36.266667C793.6 815.36 896 675.84 896 512s-102.4-303.36-247.04-358.4c-24.746667-9.813333-51.626667 9.386667-51.626667 36.266667z"></path></svg>