<?xml version="1.0" standalone="no"?><!DOCTYPE svg PUBLIC "-//W3C//DTD SVG 1.1//EN" "http://www.w3.org/Graphics/SVG/1.1/DTD/svg11.dtd"><svg viewBox="0 0 1024 1024" version="1.1" xmlns="http://www.w3.org/2000/svg"><path  d="M552.96 152.064v719.872c0 16.118-12.698 29.184-28.365 29.184a67.482 67.482 0 0 1-48.394-20.644L329.359 729.354a74.547 74.547 0 0 0-53.493-22.794H250.47c-104.386 0-189.03-87.101-189.03-194.56s84.644-194.56 189.03-194.56h25.396c20.07 0 39.3-8.192 53.473-22.794L476.18 143.503a67.482 67.482 0 0 1 48.436-20.623c15.646 0 28.344 13.066 28.344 29.184z m216.965 101.58a39.936 39.936 0 0 1 0-57.425 42.25 42.25 0 0 1 58.778 0c178.483 174.408 178.483 457.154 0 631.562a42.25 42.25 0 0 1-58.778 0 39.936 39.936 0 0 1 0-57.405 359.506 359.506 0 0 0 0-516.752zM666.542 373.884a39.731 39.731 0 0 1 0-55.235 37.52 37.52 0 0 1 53.944 0c104.305 106.783 104.305 279.921 0 386.704a37.52 37.52 0 0 1-53.944 0 39.731 39.731 0 0 1 0-55.235c74.486-76.288 74.486-199.946 0-276.234z" /></svg>