<?xml version="1.0" standalone="no"?><!DOCTYPE svg PUBLIC "-//W3C//DTD SVG 1.1//EN" "http://www.w3.org/Graphics/SVG/1.1/DTD/svg11.dtd"><svg t="1660451299604" viewBox="0 0 1024 1024" version="1.1" xmlns="http://www.w3.org/2000/svg" xmlns:xlink="http://www.w3.org/1999/xlink"><path d="M853.333333 170.666667H170.666667c-47.061333 0-85.333333 38.272-85.333334 85.333333v512c0 47.061333 38.272 85.333333 85.333334 85.333333h682.666666c47.061333 0 85.333333-38.272 85.333334-85.333333V256c0-47.061333-38.272-85.333333-85.333334-85.333333z m-384 256H341.333333v170.666666h128v85.333334H341.333333c-47.061333 0-85.333333-38.272-85.333333-85.333334v-170.666666c0-47.061333 38.272-85.333333 85.333333-85.333334h128v85.333334z m298.666667 0h-128v170.666666h128v85.333334h-128c-47.061333 0-85.333333-38.272-85.333333-85.333334v-170.666666c0-47.061333 38.272-85.333333 85.333333-85.333334h128v85.333334z" p-id="1366"></path></svg>