<svg viewBox="0 0 1024 1024" version="1.1" xmlns="http://www.w3.org/2000/svg"><path d="M640 970.666667H384c-231.765333 0-330.666667-98.901333-330.666667-330.666667V384c0-231.765333 98.901333-330.666667 330.666667-330.666667h256c231.765333 0 330.666667 98.901333 330.666667 330.666667v256c0 231.765333-98.901333 330.666667-330.666667 330.666667z m-256-853.333334C187.136 117.333333 117.333333 187.136 117.333333 384v256c0 196.864 69.802667 266.666667 266.666667 266.666667h256c196.864 0 266.666667-69.802667 266.666667-266.666667V384c0-196.864-69.76-266.666667-266.666667-266.666667z" fill="#ffffff" p-id="9126"></path><path d="M667.733333 760.746667a32.213333 32.213333 0 0 1-32-32 32.213333 32.213333 0 0 1 32-32h78.933334a32.213333 32.213333 0 0 1 32 32 32.213333 32.213333 0 0 1-32 32zM277.333333 760.746667a32.213333 32.213333 0 0 1-32-32 32.213333 32.213333 0 0 1 32-32h276.053334a32 32 0 0 1 0 64zM510.762667 600.32a32.213333 32.213333 0 0 1-32-32 32.213333 32.213333 0 0 1 32-32h235.946666a32.213333 32.213333 0 0 1 32 32 32.213333 32.213333 0 0 1-32 32zM277.333333 600.32a32.213333 32.213333 0 0 1-32-32 32.213333 32.213333 0 0 1 32-32h118.186667a32.213333 32.213333 0 0 1 32 32 32.213333 32.213333 0 0 1-32 32z"></path></svg>