<svg viewBox="0 0 1024 1024" version="1.1"><path d="M800 170.666667A138.666667 138.666667 0 0 1 938.666667 309.333333v405.546667a138.666667 138.666667 0 0 1-138.666667 138.666667H224A138.666667 138.666667 0 0 1 85.333333 714.88V309.333333a138.666667 138.666667 0 0 1 130.816-138.453333L224 170.666667h576z m0 64H224l-6.144 0.256A74.666667 74.666667 0 0 0 149.333333 309.333333v405.546667c0 41.216 33.450667 74.666667 74.666667 74.666667h576a74.666667 74.666667 0 0 0 74.666667-74.666667V309.333333a74.666667 74.666667 0 0 0-74.666667-74.666666zM234.666667 512c0-134.229333 115.754667-203.733333 218.538666-145.109333A32 32 0 0 1 421.461333 422.4C361.856 388.437333 298.666667 426.410667 298.666667 512c0 85.546667 63.317333 123.562667 122.88 89.728a32 32 0 0 1 31.573333 55.637333C350.549333 715.733333 234.666667 646.101333 234.666667 512z m320 0c0-134.229333 115.754667-203.733333 218.538666-145.109333a32 32 0 0 1-31.744 55.552C681.856 388.437333 618.666667 426.410667 618.666667 512c0 85.546667 63.317333 123.562667 122.88 89.728a32 32 0 0 1 31.573333 55.637333C670.549333 715.733333 554.666667 646.101333 554.666667 512z"></path></svg>