<?xml version="1.0" standalone="no"?><!DOCTYPE svg PUBLIC "-//W3C//DTD SVG 1.1//EN" "http://www.w3.org/Graphics/SVG/1.1/DTD/svg11.dtd"><svg t="1659428603897" viewBox="0 0 1024 1024" version="1.1" xmlns="http://www.w3.org/2000/svg" p-id="6377" xmlns:xlink="http://www.w3.org/1999/xlink"><defs></defs><path d="M838.42578125 905.31054688H744.734375c-19.42382813 0-35.15625-15.73242188-35.15625-35.15625001s15.73242188-35.15625 35.15625-35.15625H835.4375V744.29492188c0-19.42382813 15.73242188-35.15625 35.15625-35.15625001s35.15625 15.73242188 35.15625 35.15625v93.69140626c0 37.08984375-30.234375 67.32421875-67.32421875 67.32421875z m-558.45703125-1e-8H186.27734375c-37.08984375 0-67.32421875-30.234375-67.32421875-67.32421875V744.29492188c0-19.42382813 15.73242188-35.15625 35.15625-35.15625001s35.15625 15.73242188 35.15625 35.15625v90.70312501H279.96875c19.42382813 0 35.15625 15.73242188 35.15625 35.15625s-15.73242188 35.15625-35.15625 35.15625z m391.640625-142.91015624H352.83007812c-49.5703125 0-89.91210938-40.34179688-89.91210937-89.91210938V353.70898437c0-49.5703125 40.34179688-89.91210938 89.91210938-89.91210937h318.77929687c49.5703125 0 89.91210938 40.34179688 89.91210938 89.91210938v318.77929687c0 49.5703125-40.34179688 89.91210938-89.91210938 89.91210938zM352.83007812 334.109375c-10.63476563 0-19.59960938 8.96484375-19.59960937 19.59960938v318.77929687c0 10.63476563 8.96484375 19.59960938 19.59960938 19.59960938h318.77929687c10.63476563 0 19.59960938-8.96484375 19.59960938-19.59960938V353.70898437c0-10.63476563-8.96484375-19.59960938-19.59960938-19.59960937H352.83007812zM870.59375 314.68554687c-19.42382813 0-35.15625-15.73242188-35.15625-35.15624999V188.82617187H744.734375c-19.42382813 0-35.15625-15.73242188-35.15625-35.15624999s15.73242188-35.15625 35.15625-35.15625h93.69140625c37.08984375 0 67.32421875 30.234375 67.32421875 67.32421874v93.69140625c0 19.42382813-15.73242188 35.15625-35.15625 35.15625z m-716.484375 1e-8c-19.42382813 0-35.15625-15.73242188-35.15625-35.15625V185.83789062c0-37.08984375 30.234375-67.32421875 67.32421875-67.32421874H279.96875c19.42382813 0 35.15625 15.73242188 35.15625 35.15625s-15.73242188 35.15625-35.15625 35.15625H189.265625v90.703125c0 19.42382813-15.73242188 35.15625-35.15625 35.15625z" p-id="6378" fill="#ffffff"></path></svg>