<svg t="1661233074772" viewBox="0 0 1024 1024" version="1.1" xmlns="http://www.w3.org/2000/svg" p-id="1355"><path d="M795.5 192H581c-19.6 0-35.6 15.7-36 35.3-0.4 20.3 16.4 36.7 36.7 36.7h128.4L581 393.1c-14 14-14 36.9 0 50.9s36.9 14 50.9 0L760 315.9v129c0 19.6 15.8 35.6 35.3 36 20.2 0.4 36.7-16.4 36.7-36.7V228.5c0-20.1-16.3-36.5-36.5-36.5zM442.2 760H313.8L443 630.9c14-14 14-36.9 0-50.9s-36.9-14-50.9 0L264 708.1V579c0-19.6-15.8-35.6-35.3-36-20.2-0.4-36.7 16.4-36.7 36.7v215.6c0 20.3 16.4 36.7 36.7 36.7H443c19.6 0 35.6-15.7 36-35.3 0.3-20.3-16.5-36.7-36.8-36.7z" p-id="1356"></path><path d="M838 136c27.6 0 50 22.4 50 50v652c0 27.6-22.4 50-50 50H186c-27.6 0-50-22.4-50-50V186c0-27.6 22.4-50 50-50h652m0-72H186c-16.4 0-32.4 3.2-47.5 9.6-14.5 6.1-27.6 14.9-38.8 26.1-11.2 11.2-20 24.2-26.1 38.8-6.4 15.1-9.6 31.1-9.6 47.5v652c0 16.4 3.2 32.4 9.6 47.5 6.1 14.5 14.9 27.6 26.1 38.8 11.2 11.2 24.2 20 38.8 26.1 15.1 6.4 31.1 9.6 47.5 9.6h652c16.4 0 32.4-3.2 47.5-9.6 14.5-6.1 27.6-14.9 38.8-26.1 11.2-11.2 20-24.2 26.1-38.8 6.4-15.1 9.6-31.1 9.6-47.5V186c0-16.4-3.2-32.4-9.6-47.5-6.1-14.5-14.9-27.6-26.1-38.8-11.2-11.2-24.2-20-38.8-26.1-15.1-6.4-31.1-9.6-47.5-9.6z" p-id="1357"></path></svg>