<svg t="1662781037078" viewBox="0 0 1024 1024" version="1.1" xmlns="http://www.w3.org/2000/svg" p-id="2912" width="200" height="200"><path d="M810.666667 170.666667H213.333333c-47.146667 0-85.333333 38.186667-85.333333 85.333333v512c0 47.146667 38.186667 85.333333 85.333333 85.333333h597.333334c47.146667 0 85.333333-38.186667 85.333333-85.333333V256c0-47.146667-38.186667-85.333333-85.333333-85.333333zM469.333333 640h-64v-85.333333h-85.333333v85.333333h-64V384h64v106.666667h85.333333v-106.666667h64v256z m298.666667-42.666667a42.666667 42.666667 0 0 1-42.666667 42.666667h-32v64h-64v-64H597.333333a42.666667 42.666667 0 0 1-42.666666-42.666667v-170.666666a42.666667 42.666667 0 0 1 42.666666-42.666667h128a42.666667 42.666667 0 0 1 42.666667 42.666667v170.666666z m-149.333333-21.333333h85.333333v-128h-85.333333v128z" p-id="2913" fill="#ffffff"></path></svg>